<svg width="24" height="24" viewBox="0 0 24 24" fill="none" xmlns="http://www.w3.org/2000/svg">
<path d="M6 18.5732C8.206 18.5732 10 16.7792 10 14.5732V4.42822L19 7.70022V15.1302C18.3949 14.7697 17.7044 14.5774 17 14.5732C14.794 14.5732 13 16.3672 13 18.5732C13 20.7792 14.794 22.5732 17 22.5732C19.206 22.5732 21 20.7792 21 18.5732V7.00022C21.0001 6.79505 20.937 6.59482 20.8193 6.42679C20.7016 6.25877 20.5349 6.13112 20.342 6.06122L9.342 2.06122C9.19099 2.00601 9.02889 1.98807 8.86947 2.00892C8.71005 2.02977 8.55801 2.08879 8.42627 2.18096C8.29454 2.27314 8.187 2.39575 8.11279 2.53837C8.03857 2.681 7.99988 2.83944 8 3.00022V11.1302C7.39487 10.7697 6.70439 10.5774 6 10.5732C3.794 10.5732 2 12.3672 2 14.5732C2 16.7792 3.794 18.5732 6 18.5732Z" fill="black"/>
</svg>
