<svg width="20" height="20" viewBox="0 0 20 20" fill="none" xmlns="http://www.w3.org/2000/svg">
<path d="M9.99993 7.3619C8.5735 7.3619 7.36104 8.57436 7.36104 10.0008C7.36104 11.4272 8.5735 12.6397 9.99993 12.6397C11.4264 12.6397 12.6388 11.4272 12.6388 10.0008C12.6388 8.57436 11.4264 7.3619 9.99993 7.3619Z" fill="#9FA0A7"/>
<path d="M13.3825 2.08398H6.68931C4.0984 2.08398 2.08325 4.09914 2.08325 6.61808V13.3113C2.08325 15.9022 4.0984 17.9173 6.68931 17.9173H13.3825C15.9014 17.9173 17.9166 15.9022 17.9166 13.3113V6.61808C17.9166 4.09914 15.9014 2.08398 13.3825 2.08398ZM9.99992 14.1749C7.69689 14.1749 5.89765 12.3037 5.89765 10.0726C5.89765 7.84156 7.69689 5.89838 9.99992 5.89838C12.3029 5.89838 14.1022 7.76959 14.1022 10.0007C14.1022 12.2317 12.3029 14.1749 9.99992 14.1749ZM14.2461 6.76201C13.7423 6.76201 13.3105 6.3302 13.3105 5.82641C13.3105 5.32262 13.7423 4.8908 14.2461 4.8908C14.7499 4.8908 15.1817 5.32262 15.1817 5.82641C15.1817 6.3302 14.7499 6.76201 14.2461 6.76201Z" fill="#9FA0A7"/>
</svg>
