<svg width="14" height="14" viewBox="0 0 14 14" fill="none" xmlns="http://www.w3.org/2000/svg">
<path d="M5.95874 0.471986C6.35001 -0.157329 7.26593 -0.157329 7.65721 0.471986L9.27356 3.07166C9.41123 3.29308 9.62993 3.45198 9.88305 3.51448L12.855 4.24838C13.5744 4.42604 13.8574 5.29713 13.3798 5.86373L11.4069 8.20431C11.2388 8.40366 11.1553 8.66076 11.1741 8.92081L11.3945 11.9741C11.4478 12.7132 10.7068 13.2515 10.0204 12.9724L7.18466 11.8193C6.94314 11.7211 6.67281 11.7211 6.43128 11.8193L3.59558 12.9724C2.90912 13.2515 2.16813 12.7132 2.22148 11.9741L2.44188 8.92081C2.46065 8.66076 2.37711 8.40366 2.20907 8.20431L0.236115 5.86372C-0.241487 5.29713 0.0415466 4.42604 0.760972 4.24838L3.73289 3.51448C3.98601 3.45198 4.20472 3.29308 4.34238 3.07166L5.95874 0.471986Z" fill="#FFCB02"/>
</svg>
