<svg width="35" height="34" viewBox="0 0 21 20" fill="none" xmlns="http://www.w3.org/2000/svg">
<path d="M8.9381 0.707979C9.52502 -0.235993 10.8989 -0.235993 11.4858 0.707979L13.9103 4.60749C14.1168 4.93962 14.4449 5.17796 14.8246 5.27172L19.2825 6.37257C20.3616 6.63906 20.7861 7.94569 20.0697 8.79559L17.1103 12.3065C16.8582 12.6055 16.7329 12.9911 16.7611 13.3812L17.0917 17.9611C17.1717 19.0698 16.0602 19.8773 15.0305 19.4586L10.777 17.7289C10.4147 17.5816 10.0092 17.5816 9.64693 17.7289L5.39336 19.4586C4.36369 19.8773 3.2522 19.0698 3.33223 17.9611L3.66282 13.3812C3.69097 12.9911 3.56567 12.6055 3.31361 12.3065L0.354173 8.79559C-0.362231 7.94569 0.0623199 6.63906 1.14146 6.37257L5.59934 5.27172C5.97902 5.17796 6.30707 4.93962 6.51357 4.60749L8.9381 0.707979Z" fill="#E0E0E5"/>
</svg>
