<svg width="20" height="20" viewBox="0 0 20 20" fill="none" xmlns="http://www.w3.org/2000/svg">
<path d="M10.0015 3.54102C10.0107 3.54102 15.733 3.54146 17.1646 3.9292C17.9537 4.13941 18.5747 4.76369 18.7849 5.55924C19.1665 6.99844 19.1633 9.99935 19.1633 9.99935C19.1633 10.0203 19.1619 13.0054 18.7817 14.4395C18.5714 15.2318 17.9505 15.8561 17.1614 16.0695C15.7317 16.4543 9.99829 16.4544 9.99829 16.4544C9.9895 16.4544 4.26377 16.454 2.83521 16.0695C2.04612 15.8593 1.42513 15.235 1.21493 14.4395C0.83466 13.0054 0.833257 10.0203 0.833252 9.99935C0.833252 9.99935 0.833387 6.99841 1.21818 5.55599C1.42839 4.76367 2.04937 4.13939 2.83846 3.92594C4.26807 3.54113 10.0015 3.54102 10.0015 3.54102ZM8.12573 12.7256L12.9182 9.99935L8.12573 7.27311V12.7256Z" fill="#9FA0A7"/>
</svg>
